<svg width="16" height="17" viewBox="0 0 16 17" fill="none" xmlns="http://www.w3.org/2000/svg">
<path d="M0.834106 2.41492H9.18427M0.834106 2.41492L2.35232 0.709961M0.834106 2.41492L2.35232 4.11987M9.18427 2.41492L7.66606 4.11987M9.18427 2.41492L7.66606 0.709961M12.9798 6.6773V16.0546M12.9798 6.6773L14.498 8.38226M12.9798 6.6773L11.4616 8.38226M12.9798 16.0546L11.4616 14.3496M12.9798 16.0546L14.498 14.3496M0.834106 8.38226C0.834106 7.93008 0.99406 7.49642 1.27878 7.17667C1.5635 6.85693 1.94966 6.6773 2.35232 6.6773H7.66606C8.06872 6.6773 8.45488 6.85693 8.7396 7.17667C9.02432 7.49642 9.18427 7.93008 9.18427 8.38226V14.3496C9.18427 14.8018 9.02432 15.2354 8.7396 15.5552C8.45488 15.8749 8.06872 16.0546 7.66606 16.0546H2.35232C1.94966 16.0546 1.5635 15.8749 1.27878 15.5552C0.99406 15.2354 0.834106 14.8018 0.834106 14.3496V8.38226Z" stroke="#7065F0" stroke-width="1.27985" stroke-linecap="round" stroke-linejoin="round"/>
</svg>
