<svg width="65" height="64" viewBox="0 0 65 64" fill="none" xmlns="http://www.w3.org/2000/svg">
<rect x="0.5" width="64" height="64" rx="32" fill="#7065F0"/>
<path d="M41.8333 22.6666L23.1667 41.3333M26.5 24.6666C26.5 25.403 25.903 26 25.1667 26C24.4303 26 23.8333 25.403 23.8333 24.6666C23.8333 23.9302 24.4303 23.3333 25.1667 23.3333C25.903 23.3333 26.5 23.9302 26.5 24.6666ZM41.1667 39.3333C41.1667 40.0697 40.5697 40.6666 39.8333 40.6666C39.0969 40.6666 38.5 40.0697 38.5 39.3333C38.5 38.5969 39.0969 38 39.8333 38C40.5697 38 41.1667 38.5969 41.1667 39.3333Z" stroke="white" stroke-width="3" stroke-linecap="round" stroke-linejoin="round"/>
</svg>
