<svg width="65" height="64" viewBox="0 0 65 64" fill="none" xmlns="http://www.w3.org/2000/svg">
<circle cx="32.5" cy="32" r="32" fill="#7065F0"/>
<path d="M30.7727 45.9091V16.8182H32.6364V45.9091H30.7727ZM37.0455 25.5455C36.9091 24.3939 36.3561 23.5 35.3864 22.8636C34.4167 22.2273 33.2273 21.9091 31.8182 21.9091C30.7879 21.9091 29.8864 22.0758 29.1136 22.4091C28.3485 22.7424 27.75 23.2008 27.3182 23.7841C26.8939 24.3674 26.6818 25.0303 26.6818 25.7727C26.6818 26.3939 26.8295 26.928 27.125 27.375C27.428 27.8144 27.8144 28.1818 28.2841 28.4773C28.7538 28.7652 29.2462 29.0038 29.7614 29.1932C30.2765 29.375 30.75 29.5227 31.1818 29.6364L33.5455 30.2727C34.1515 30.4318 34.8258 30.6515 35.5682 30.9318C36.3182 31.2121 37.0341 31.5947 37.7159 32.0795C38.4053 32.5568 38.9735 33.1705 39.4205 33.9205C39.8674 34.6705 40.0909 35.5909 40.0909 36.6818C40.0909 37.9394 39.7614 39.0758 39.1023 40.0909C38.4508 41.1061 37.4962 41.9129 36.2386 42.5114C34.9886 43.1098 33.4697 43.4091 31.6818 43.4091C30.0152 43.4091 28.572 43.1402 27.3523 42.6023C26.1402 42.0644 25.1856 41.3144 24.4886 40.3523C23.7992 39.3902 23.4091 38.2727 23.3182 37H26.2273C26.303 37.8788 26.5985 38.6061 27.1136 39.1818C27.6364 39.75 28.2955 40.1742 29.0909 40.4545C29.8939 40.7273 30.7576 40.8636 31.6818 40.8636C32.7576 40.8636 33.7235 40.6894 34.5795 40.3409C35.4356 39.9848 36.1136 39.4924 36.6136 38.8636C37.1136 38.2273 37.3636 37.4848 37.3636 36.6364C37.3636 35.8636 37.1477 35.2348 36.7159 34.75C36.2841 34.2652 35.7159 33.8712 35.0114 33.5682C34.3068 33.2652 33.5455 33 32.7273 32.7727L29.8636 31.9545C28.0455 31.4318 26.6061 30.6856 25.5455 29.7159C24.4848 28.7462 23.9545 27.4773 23.9545 25.9091C23.9545 24.6061 24.3068 23.4697 25.0114 22.5C25.7235 21.5227 26.678 20.7652 27.875 20.2273C29.0795 19.6818 30.4242 19.4091 31.9091 19.4091C33.4091 19.4091 34.7424 19.678 35.9091 20.2159C37.0758 20.7462 38 21.4735 38.6818 22.3977C39.3712 23.322 39.7348 24.3712 39.7727 25.5455H37.0455Z" fill="white"/>
</svg>
