<svg width="16" height="17" viewBox="0 0 16 17" fill="none" xmlns="http://www.w3.org/2000/svg">
<path d="M3.50924 8.38226V2.41492C3.50924 1.96273 3.66919 1.52907 3.95391 1.20933C4.23863 0.88959 4.62479 0.709961 5.02745 0.709961H7.30477V2.62804M1.99102 16.0546L2.75013 14.7758M14.1367 16.0546L13.3776 14.7758M1.99102 8.38226H14.1367C14.3381 8.38226 14.5311 8.47207 14.6735 8.63194C14.8159 8.79181 14.8958 9.00865 14.8958 9.23474V11.7922C14.8958 12.6965 14.5759 13.5639 14.0065 14.2033C13.437 14.8428 12.6647 15.2021 11.8594 15.2021H4.26834C3.46303 15.2021 2.69071 14.8428 2.12127 14.2033C1.55183 13.5639 1.23192 12.6965 1.23192 11.7922V9.23474C1.23192 9.00865 1.3119 8.79181 1.45426 8.63194C1.59662 8.47207 1.7897 8.38226 1.99102 8.38226Z" stroke="#7065F0" stroke-width="1.27985" stroke-linecap="round" stroke-linejoin="round"/>
</svg>
