<svg width="20" height="21" viewBox="0 0 20 21" fill="none" xmlns="http://www.w3.org/2000/svg">
<path d="M3.00024 17.2021V10.3823C3.00024 9.93014 3.1652 9.49648 3.45881 9.17674C3.75243 8.85699 4.15066 8.67737 4.5659 8.67737M4.5659 8.67737H15.5255M4.5659 8.67737V5.26746C4.5659 4.81527 4.73085 4.38161 5.02447 4.06187C5.31809 3.74213 5.71632 3.5625 6.13156 3.5625H13.9598C14.3751 3.5625 14.7733 3.74213 15.0669 4.06187C15.3605 4.38161 15.5255 4.81527 15.5255 5.26746V8.67737M15.5255 8.67737C15.9407 8.67737 16.339 8.85699 16.6326 9.17674C16.9262 9.49648 17.0912 9.93014 17.0912 10.3823V17.2021M3.00024 15.4972H17.0912" stroke="#7065F0" stroke-width="1.27985" stroke-linecap="round" stroke-linejoin="round"/>
</svg>
