<svg width="702" height="328" viewBox="0 0 702 328" fill="none" xmlns="http://www.w3.org/2000/svg">
<g clip-path="url(#clip0_15_13)">
<path d="M639.598 327.047H356.876C349.186 327.047 342.93 320.126 342.93 311.619V101.372C342.897 99.7685 343.31 98.1871 344.124 96.8044C344.937 95.4217 346.118 94.292 347.536 93.5412L454.372 28.8653C460.229 25.9585 466.677 24.4428 473.215 24.4362C479.753 24.4296 486.204 25.9322 492.066 28.8272L648.91 93.5346C650.335 94.2827 651.523 95.4128 652.341 96.7983C653.16 98.1838 653.576 99.77 653.544 101.379V311.619C653.544 320.126 647.288 327.047 639.598 327.047Z" fill="#F2F2F2"/>
<path d="M597.851 326.819H355.071C348.44 326.819 343.045 321.934 343.045 315.929V168.965C343.076 167.74 343.475 166.553 344.19 165.558C344.904 164.563 345.902 163.806 347.052 163.385L460.096 118.166C470.483 114.056 482.044 114.05 492.436 118.149L605.863 163.387C607.015 163.807 608.014 164.564 608.73 165.56C609.446 166.555 609.846 167.744 609.877 168.97V315.929C609.877 321.934 604.482 326.819 597.851 326.819Z" fill="#A9A2F6"/>
<path d="M210.271 172.485C229.918 172.485 245.845 156.558 245.845 136.912C245.845 117.265 229.918 101.338 210.271 101.338C190.624 101.338 174.697 117.265 174.697 136.912C174.697 156.558 190.624 172.485 210.271 172.485Z" fill="#7065F0"/>
<path d="M225.143 266.429C250.027 266.429 270.199 241.179 270.199 210.033C270.199 178.886 250.027 153.636 225.143 153.636C200.259 153.636 180.087 178.886 180.087 210.033C180.087 241.179 200.259 266.429 225.143 266.429Z" fill="#F2F2F2"/>
<path d="M225.266 198.692H225.39L227.619 326.433H222.915L225.266 198.692Z" fill="#CCCCCC"/>
<path d="M232.951 283.26C233.089 283.522 233.117 283.827 233.03 284.109C232.942 284.391 232.746 284.627 232.485 284.765L226.023 288.167L224.985 286.196L231.447 282.793C231.708 282.656 232.014 282.628 232.296 282.715C232.578 282.803 232.814 282.999 232.951 283.26Z" fill="#CCCCCC"/>
<path d="M95.609 266.429C120.493 266.429 140.665 241.179 140.665 210.033C140.665 178.886 120.493 153.636 95.609 153.636C70.7253 153.636 50.5532 178.886 50.5532 210.033C50.5532 241.179 70.7253 266.429 95.609 266.429Z" fill="#F2F2F2"/>
<path d="M103.418 285.372C103.28 285.111 103.044 284.915 102.762 284.827C102.48 284.74 102.174 284.768 101.913 284.905L97.4015 287.281L95.8564 198.692H95.7327L93.3811 326.433H98.0846L97.4452 289.776L102.951 286.877C103.212 286.739 103.408 286.503 103.496 286.221C103.583 285.939 103.555 285.634 103.418 285.372Z" fill="#CCCCCC"/>
<path d="M160.219 80.0645C191.749 80.0645 217.377 139.475 217.377 178.941C217.377 218.408 191.817 250.402 160.287 250.402C128.756 250.402 103.196 218.408 103.196 178.941C103.196 139.475 128.689 80.0645 160.219 80.0645Z" fill="#E8E6F9"/>
<path d="M170.181 274.404C170.094 274.24 169.977 274.095 169.834 273.977C169.692 273.858 169.527 273.769 169.35 273.714C169.173 273.659 168.987 273.639 168.802 273.657C168.618 273.674 168.438 273.727 168.274 273.813L162.558 276.823L160.6 164.572H160.444L157.464 326.432H163.423L162.613 279.984L169.59 276.311C169.754 276.225 169.899 276.107 170.017 275.964C170.136 275.822 170.225 275.657 170.28 275.48C170.335 275.303 170.355 275.117 170.337 274.933C170.32 274.748 170.267 274.568 170.181 274.404Z" fill="#000929"/>
<path d="M419.775 225.824V210.624C419.775 208.642 418.987 206.741 417.585 205.339C416.184 203.937 414.282 203.15 412.3 203.15H373.944C371.962 203.15 370.06 203.937 368.659 205.339C367.257 206.741 366.469 208.642 366.469 210.624V225.824H419.775Z" fill="white"/>
<path d="M366.469 228.211V251.765C366.469 253.747 367.257 255.648 368.659 257.05C370.06 258.452 371.962 259.239 373.944 259.239H412.3C414.282 259.239 416.184 258.452 417.585 257.05C418.987 255.648 419.775 253.747 419.775 251.765V228.211H366.469Z" fill="white"/>
<path d="M600.644 184.104L485.488 141.89C478.489 139.325 470.807 139.325 463.808 141.89L348.652 184.104C346.225 184.993 343.619 185.284 341.056 184.951C338.492 184.618 336.047 183.671 333.928 182.191C331.809 180.711 330.078 178.741 328.883 176.448C327.688 174.156 327.064 171.609 327.064 169.024C327.064 165.735 328.075 162.525 329.958 159.828C331.842 157.131 334.508 155.078 337.597 153.945L463.808 107.68C470.807 105.114 478.489 105.114 485.488 107.68L611.699 153.945C614.788 155.078 617.454 157.131 619.338 159.828C621.221 162.525 622.232 165.735 622.232 169.024C622.232 171.609 621.608 174.156 620.413 176.448C619.218 178.741 617.487 180.711 615.368 182.191C613.249 183.671 610.804 184.618 608.24 184.951C605.677 185.284 603.071 184.993 600.644 184.104Z" fill="#000929"/>
<path d="M493.242 327.523H462.465C459.198 327.52 456.067 326.22 453.757 323.911C451.448 321.601 450.149 318.47 450.145 315.203V240.668C450.149 237.402 451.448 234.27 453.757 231.961C456.067 229.651 459.198 228.352 462.465 228.348H493.242C496.508 228.352 499.64 229.651 501.949 231.961C504.259 234.27 505.558 237.402 505.562 240.668V315.203C505.558 318.47 504.259 321.601 501.949 323.911C499.64 326.22 496.508 327.52 493.242 327.523ZM462.465 230.46C459.758 230.463 457.164 231.54 455.25 233.453C453.336 235.367 452.26 237.962 452.257 240.668V315.203C452.26 317.91 453.336 320.504 455.25 322.418C457.164 324.332 459.758 325.408 462.465 325.411H493.242C495.948 325.408 498.543 324.332 500.457 322.418C502.37 320.504 503.447 317.91 503.45 315.203V240.668C503.447 237.962 502.37 235.367 500.457 233.453C498.543 231.54 495.948 230.463 493.242 230.46H462.465Z" fill="#3F3D56"/>
<path d="M496.227 69.8227C495.732 64.2814 493.18 59.1262 489.075 55.3716C484.969 51.6171 479.607 49.5349 474.044 49.5349C468.48 49.5349 463.118 51.6171 459.013 55.3716C454.907 59.1262 452.356 64.2814 451.86 69.8227H496.227Z" fill="white"/>
<path d="M451.777 72.2095C451.88 78.0472 454.271 83.6112 458.435 87.7033C462.6 91.7954 468.205 94.0883 474.044 94.0883C479.882 94.0883 485.487 91.7954 489.652 87.7033C493.817 83.6112 496.208 78.0472 496.31 72.2095H451.777Z" fill="white"/>
<path d="M492.74 96.8273H455.347C453.566 96.8273 451.857 96.1197 450.598 94.86C449.338 93.6004 448.63 91.892 448.63 90.1106C448.63 88.3292 449.338 86.6207 450.598 85.3611C451.857 84.1015 453.566 83.3938 455.347 83.3938H492.74C494.522 83.3938 496.23 84.1015 497.49 85.3611C498.749 86.6207 499.457 88.3292 499.457 90.1106C499.457 91.892 498.749 93.6004 497.49 94.86C496.23 96.1197 494.522 96.8273 492.74 96.8273Z" fill="#CCCCCC"/>
<path d="M366.867 251.635C365.273 251.635 363.743 252.269 362.616 253.396C361.488 254.524 360.854 256.053 360.854 257.648C360.854 259.243 361.488 260.772 362.616 261.9C363.743 263.027 365.273 263.661 366.867 263.661H419.377C420.971 263.661 422.501 263.027 423.629 261.9C424.756 260.772 425.39 259.243 425.39 257.648C425.39 256.053 424.756 254.524 423.629 253.396C422.501 252.269 420.971 251.635 419.377 251.635H366.867Z" fill="#CCCCCC"/>
<path d="M529.965 228.211V251.765C529.965 253.747 530.752 255.648 532.154 257.05C533.556 258.452 535.457 259.239 537.44 259.239H575.795C577.778 259.239 579.679 258.452 581.081 257.05C582.483 255.648 583.27 253.747 583.27 251.765V228.211H529.965Z" fill="white"/>
<path d="M583.27 225.824V210.624C583.27 208.642 582.483 206.741 581.081 205.339C579.679 203.937 577.778 203.15 575.795 203.15H537.44C535.457 203.15 533.556 203.937 532.154 205.339C530.752 206.741 529.965 208.642 529.965 210.624V225.824H583.27Z" fill="white"/>
<path d="M496.152 280.323C498.569 280.323 500.528 278.364 500.528 275.947C500.528 273.53 498.569 271.571 496.152 271.571C493.735 271.571 491.776 273.53 491.776 275.947C491.776 278.364 493.735 280.323 496.152 280.323Z" fill="#3F3D56"/>
<path d="M349.168 278.763L331.933 251.953L332.73 251.439L349.085 276.881L362.413 251.476L363.252 251.916L349.168 278.763Z" fill="#3F3D56"/>
<path d="M363.204 243.164H322.202V242.453C322.202 241.301 321.975 240.161 321.534 239.097C321.093 238.033 320.448 237.066 319.633 236.252C318.819 235.438 317.852 234.792 316.788 234.351C315.724 233.91 314.584 233.683 313.432 233.683C312.281 233.683 311.141 233.91 310.077 234.351C309.013 234.792 308.046 235.438 307.232 236.252C306.417 237.066 305.771 238.033 305.331 239.097C304.89 240.161 304.663 241.301 304.663 242.453V243.164H300.634C298.308 243.164 296.078 244.088 294.433 245.732C292.789 247.377 291.865 249.607 291.865 251.933C291.865 254.259 292.789 256.489 294.433 258.134C296.078 259.778 298.308 260.702 300.634 260.702H304.663V326.972C322.136 326.622 304.537 327.326 322.202 326.972V260.702H363.204C365.529 260.702 367.76 259.778 369.404 258.134C371.049 256.489 371.973 254.259 371.973 251.933C371.973 249.607 371.049 247.377 369.404 245.732C367.76 244.088 365.529 243.164 363.204 243.164Z" fill="#3F3D56"/>
<path d="M313.195 255.014C315.028 255.014 316.514 253.528 316.514 251.696C316.514 249.863 315.028 248.378 313.195 248.378C311.363 248.378 309.877 249.863 309.877 251.696C309.877 253.528 311.363 255.014 313.195 255.014Z" fill="white"/>
<path d="M368.414 295.657H330.5C328.709 295.655 326.992 294.943 325.726 293.676C324.46 292.41 323.748 290.693 323.746 288.902V276.585C323.748 274.794 324.46 273.077 325.726 271.811C326.993 270.545 328.709 269.832 330.5 269.83H368.414C370.205 269.832 371.922 270.545 373.188 271.811C374.454 273.077 375.167 274.794 375.169 276.585V288.902C375.167 290.693 374.455 292.41 373.188 293.676C371.922 294.943 370.205 295.655 368.414 295.657Z" fill="#CCCCCC"/>
<path d="M361.308 279.663H337.133C335.693 279.663 334.526 280.83 334.526 282.27C334.526 283.71 335.693 284.877 337.133 284.877H361.308C362.747 284.877 363.915 283.71 363.915 282.27C363.915 280.83 362.747 279.663 361.308 279.663Z" fill="#A9A2F6"/>
<path d="M701.456 327.678H0.544223C0.399885 327.678 0.261463 327.621 0.159401 327.519C0.0573387 327.417 0 327.278 0 327.134C0 326.99 0.0573387 326.851 0.159401 326.749C0.261463 326.647 0.399885 326.59 0.544223 326.59H701.456C701.6 326.59 701.739 326.647 701.841 326.749C701.943 326.851 702 326.99 702 327.134C702 327.278 701.943 327.417 701.841 327.519C701.739 327.621 701.6 327.678 701.456 327.678Z" fill="#CCCCCC"/>
<path d="M582.474 264.365H529.965C528.183 264.365 526.475 263.657 525.215 262.398C523.956 261.138 523.248 259.43 523.248 257.648C523.248 255.867 523.956 254.158 525.215 252.899C526.475 251.639 528.183 250.931 529.965 250.931H582.474C584.256 250.931 585.964 251.639 587.224 252.899C588.484 254.158 589.191 255.867 589.191 257.648C589.191 259.43 588.484 261.138 587.224 262.398C585.964 263.657 584.256 264.365 582.474 264.365Z" fill="#CCCCCC"/>
<path d="M653.011 108.386C653.011 108.386 640.277 107.482 614.292 106.274C583.316 52.0666 482.644 39.0005 482.644 9.66781e-05L606.381 0C618.761 0 630.634 4.91804 639.388 13.6722C648.142 22.4264 653.061 34.2995 653.061 46.6798L653.011 108.386Z" fill="#CCCCCC"/>
<path d="M545.692 14.2513C545.412 14.2516 545.143 14.363 544.945 14.561C544.747 14.7589 544.636 15.0274 544.636 15.3073V50.5631C544.636 50.8431 544.747 51.1115 544.945 51.3095C545.143 51.5075 545.412 51.6188 545.692 51.6191H567.653C567.933 51.6188 568.201 51.5075 568.399 51.3095C568.597 51.1115 568.708 50.8431 568.709 50.5631V15.3073C568.708 15.0274 568.597 14.7589 568.399 14.561C568.201 14.363 567.933 14.2516 567.653 14.2513H545.692Z" fill="#F2F2F2"/>
<path d="M606.687 105.543L491.531 36.135C484.532 33.5693 476.85 33.5693 469.851 36.135L354.695 105.543C352.268 106.432 349.662 106.723 347.099 106.39C344.536 106.057 342.09 105.11 339.971 103.63C337.852 102.15 336.121 100.18 334.926 97.8875C333.732 95.5953 333.108 93.0485 333.108 90.4635C333.108 87.1739 334.118 83.9637 336.001 81.2668C337.885 78.57 340.552 76.5166 343.64 75.3844L469.851 1.92427C476.85 -0.641423 484.532 -0.641423 491.531 1.92427L617.742 75.3844C620.831 76.5166 623.497 78.5699 625.381 81.2668C627.265 83.9636 628.275 87.1739 628.275 90.4635C628.275 93.0484 627.651 95.5952 626.456 97.8875C625.261 100.18 623.53 102.15 621.411 103.63C619.292 105.11 616.847 106.057 614.283 106.39C611.72 106.723 609.114 106.432 606.687 105.543Z" fill="#CCCCCC"/>
</g>
<defs>
<clipPath id="clip0_15_13">
<rect width="702" height="327.678" fill="white"/>
</clipPath>
</defs>
</svg>
