<svg width="63" height="63" viewBox="0 0 63 63" fill="none" xmlns="http://www.w3.org/2000/svg">
<circle cx="31.5" cy="31.5" r="29.5" fill="#7065F0" stroke="white" stroke-width="3"/>
<path d="M31 37.3333C33.2091 37.3333 35 35.5425 35 33.3333C35 31.1242 33.2091 29.3333 31 29.3333C28.7909 29.3333 27 31.1242 27 33.3333C27 35.5425 28.7909 37.3333 31 37.3333Z" stroke="white" stroke-width="2" stroke-linecap="round" stroke-linejoin="round"/>
<path d="M19 30.0867C19 29.3209 19 28.938 19.0987 28.5854C19.1861 28.273 19.3298 27.9793 19.5227 27.7185C19.7404 27.4241 20.0427 27.189 20.6472 26.7188L29.6903 19.6853C30.1587 19.321 30.3929 19.1388 30.6515 19.0688C30.8797 19.007 31.1203 19.007 31.3485 19.0688C31.6071 19.1388 31.8413 19.321 32.3097 19.6853L41.3528 26.7188C41.9573 27.189 42.2596 27.4241 42.4773 27.7185C42.6702 27.9793 42.8139 28.273 42.9013 28.5854C43 28.938 43 29.3209 43 30.0867V39.7333C43 41.2268 43 41.9735 42.7094 42.544C42.4537 43.0457 42.0457 43.4537 41.544 43.7093C40.9735 44 40.2268 44 38.7333 44H23.2667C21.7732 44 21.0265 44 20.456 43.7093C19.9543 43.4537 19.5463 43.0457 19.2906 42.544C19 41.9735 19 41.2268 19 39.7333V30.0867Z" stroke="white" stroke-width="2" stroke-linecap="round" stroke-linejoin="round"/>
</svg>
