<svg width="160" height="32" viewBox="0 0 160 32" fill="none" xmlns="http://www.w3.org/2000/svg">
<rect width="32" height="32" rx="4" fill="#7065F0"/>
<rect x="4" y="4" width="24" height="24" rx="2" fill="#7065F0"/>
<path d="M7 14.5653C7 13.9909 7 13.7038 7.07403 13.4393C7.1396 13.205 7.24737 12.9847 7.39203 12.7891C7.55534 12.5683 7.78202 12.392 8.23539 12.0394L15.0177 6.76424C15.369 6.49099 15.5447 6.35436 15.7387 6.30184C15.9098 6.2555 16.0902 6.2555 16.2613 6.30184C16.4553 6.35436 16.631 6.49099 16.9823 6.76424L23.7646 12.0394C24.218 12.392 24.4447 12.5683 24.608 12.7891C24.7526 12.9847 24.8604 13.205 24.926 13.4393C25 13.7038 25 13.9909 25 14.5653V21.8002C25 22.9203 25 23.4804 24.782 23.9082C24.5903 24.2845 24.2843 24.5905 23.908 24.7822C23.4802 25.0002 22.9201 25.0002 21.8 25.0002H10.2C9.0799 25.0002 8.51984 25.0002 8.09202 24.7822C7.71569 24.5905 7.40973 24.2845 7.21799 23.9082C7 23.4804 7 22.9203 7 21.8002V14.5653Z" fill="#7065F0"/>
<path d="M12.126 18.0002C12.5701 19.7255 14.1362 21.0002 16 21.0002C17.8638 21.0002 19.4299 19.7255 19.874 18.0002M15.0177 6.76424L8.23539 12.0394C7.78202 12.392 7.55534 12.5683 7.39203 12.7891C7.24737 12.9847 7.1396 13.205 7.07403 13.4393C7 13.7038 7 13.9909 7 14.5653V21.8002C7 22.9203 7 23.4804 7.21799 23.9082C7.40973 24.2845 7.71569 24.5905 8.09202 24.7822C8.51984 25.0002 9.07989 25.0002 10.2 25.0002H21.8C22.9201 25.0002 23.4802 25.0002 23.908 24.7822C24.2843 24.5905 24.5903 24.2845 24.782 23.9082C25 23.4804 25 22.9203 25 21.8002V14.5653C25 13.9909 25 13.7038 24.926 13.4393C24.8604 13.205 24.7526 12.9847 24.608 12.7891C24.4447 12.5683 24.218 12.392 23.7646 12.0394L16.9823 6.76424C16.631 6.49099 16.4553 6.35436 16.2613 6.30184C16.0902 6.2555 15.9098 6.2555 15.7387 6.30184C15.5447 6.35436 15.369 6.49099 15.0177 6.76424Z" stroke="white" stroke-width="2" stroke-linecap="round" stroke-linejoin="round"/>
<path d="M50.2486 8.45455H53.3239V17.9006C53.3239 18.9612 53.0705 19.8892 52.5639 20.6847C52.062 21.4801 51.3589 22.1004 50.4545 22.5455C49.5502 22.9858 48.4967 23.206 47.294 23.206C46.0866 23.206 45.0308 22.9858 44.1264 22.5455C43.2221 22.1004 42.5189 21.4801 42.017 20.6847C41.5152 19.8892 41.2642 18.9612 41.2642 17.9006V8.45455H44.3395V17.6378C44.3395 18.1918 44.4602 18.6842 44.7017 19.1151C44.9479 19.5459 45.2936 19.8845 45.7386 20.1307C46.1837 20.3769 46.7022 20.5 47.294 20.5C47.8906 20.5 48.4091 20.3769 48.8494 20.1307C49.2945 19.8845 49.6378 19.5459 49.8793 19.1151C50.1255 18.6842 50.2486 18.1918 50.2486 17.6378V8.45455ZM55.7972 23V12.0909H58.7305V13.9943H58.8441C59.043 13.3172 59.3768 12.8059 59.8455 12.4602C60.3143 12.1098 60.854 11.9347 61.4648 11.9347C61.6164 11.9347 61.7797 11.9441 61.9549 11.9631C62.1301 11.982 62.284 12.008 62.4165 12.0412V14.7259C62.2745 14.6832 62.078 14.6454 61.8271 14.6122C61.5761 14.5791 61.3465 14.5625 61.1381 14.5625C60.6931 14.5625 60.2953 14.6596 59.945 14.8537C59.5993 15.0431 59.3247 15.3082 59.1211 15.6491C58.9222 15.9901 58.8228 16.383 58.8228 16.8281V23H55.7972ZM64.0376 23V8.45455H67.0632V13.9233H67.1555C67.2881 13.6297 67.4799 13.3314 67.7308 13.0284C67.9865 12.7206 68.3179 12.465 68.7251 12.2614C69.1371 12.053 69.6484 11.9489 70.2592 11.9489C71.0547 11.9489 71.7886 12.1572 72.4609 12.5739C73.1333 12.9858 73.6707 13.6084 74.0732 14.4418C74.4756 15.2704 74.6768 16.3097 74.6768 17.5597C74.6768 18.7765 74.4804 19.804 74.0874 20.642C73.6991 21.4754 73.1688 22.1075 72.4964 22.5384C71.8288 22.9645 71.0807 23.1776 70.2521 23.1776C69.665 23.1776 69.1655 23.0805 68.7536 22.8864C68.3464 22.6922 68.0125 22.4484 67.7521 22.1548C67.4917 21.8565 67.2929 21.5559 67.1555 21.2528H67.0206V23H64.0376ZM66.9993 17.5455C66.9993 18.1941 67.0893 18.7599 67.2692 19.2429C67.4491 19.7259 67.7095 20.1023 68.0504 20.3722C68.3913 20.6373 68.8056 20.7699 69.2933 20.7699C69.7857 20.7699 70.2024 20.6349 70.5433 20.3651C70.8842 20.0904 71.1423 19.7116 71.3175 19.2287C71.4974 18.741 71.5874 18.1799 71.5874 17.5455C71.5874 16.9157 71.4998 16.3617 71.3246 15.8835C71.1494 15.4053 70.8913 15.0312 70.5504 14.7614C70.2095 14.4915 69.7905 14.3565 69.2933 14.3565C68.8009 14.3565 68.3842 14.4867 68.0433 14.7472C67.7071 15.0076 67.4491 15.3769 67.2692 15.8551C67.0893 16.3333 66.9993 16.8968 66.9993 17.5455ZM79.8065 23.206C79.1104 23.206 78.4902 23.0852 77.9457 22.8438C77.4012 22.5975 76.9703 22.2353 76.6531 21.7571C76.3406 21.2741 76.1843 20.6728 76.1843 19.9531C76.1843 19.3471 76.2956 18.8381 76.5181 18.4261C76.7406 18.0142 77.0437 17.6828 77.4272 17.4318C77.8107 17.1809 78.2463 16.9915 78.734 16.8636C79.2264 16.7358 79.7425 16.6458 80.2823 16.5938C80.9168 16.5275 81.4281 16.4659 81.8164 16.4091C82.2047 16.3475 82.4864 16.2576 82.6616 16.1392C82.8368 16.0208 82.9244 15.8456 82.9244 15.6136V15.571C82.9244 15.1212 82.7823 14.7732 82.4982 14.527C82.2189 14.2808 81.8211 14.1577 81.305 14.1577C80.7605 14.1577 80.3273 14.2784 80.0053 14.5199C79.6834 14.7566 79.4703 15.0549 79.3661 15.4148L76.5678 15.1875C76.7099 14.5246 76.9892 13.9517 77.4059 13.4688C77.8226 12.9811 78.36 12.607 79.0181 12.3466C79.681 12.0814 80.448 11.9489 81.3192 11.9489C81.9253 11.9489 82.5053 12.0199 83.0593 12.1619C83.618 12.304 84.1128 12.5241 84.5437 12.8224C84.9793 13.1207 85.3226 13.5043 85.5735 13.973C85.8245 14.437 85.9499 14.9934 85.9499 15.642V23H83.0806V21.4872H82.9954C82.8202 21.8281 82.5858 22.1288 82.2923 22.3892C81.9987 22.6449 81.646 22.8461 81.234 22.9929C80.8221 23.1349 80.3462 23.206 79.8065 23.206ZM80.6729 21.1179C81.118 21.1179 81.511 21.0303 81.8519 20.8551C82.1928 20.6752 82.4603 20.4337 82.6545 20.1307C82.8486 19.8277 82.9457 19.4844 82.9457 19.1009V17.9432C82.851 18.0047 82.7208 18.0616 82.555 18.1136C82.3941 18.161 82.2118 18.206 82.0082 18.2486C81.8046 18.2865 81.601 18.322 81.3974 18.3551C81.1938 18.3835 81.0091 18.4096 80.8434 18.4332C80.4883 18.4853 80.1781 18.5682 79.913 18.6818C79.6478 18.7955 79.4419 18.9493 79.2951 19.1435C79.1483 19.3329 79.0749 19.5696 79.0749 19.8537C79.0749 20.2656 79.2241 20.5805 79.5224 20.7983C79.8254 21.0114 80.2089 21.1179 80.6729 21.1179ZM91.3228 16.6932V23H88.2972V12.0909H91.1808V14.0156H91.3086C91.5501 13.3812 91.9549 12.8793 92.5231 12.5099C93.0913 12.1359 93.7802 11.9489 94.5898 11.9489C95.3474 11.9489 96.0079 12.1146 96.5714 12.446C97.1348 12.7775 97.5728 13.2509 97.8853 13.8665C98.1978 14.4773 98.354 15.2064 98.354 16.054V23H95.3285V16.5938C95.3332 15.9261 95.1628 15.4053 94.8171 15.0312C94.4715 14.6525 93.9956 14.4631 93.3896 14.4631C92.9824 14.4631 92.6225 14.5507 92.31 14.7259C92.0022 14.901 91.7608 15.1567 91.5856 15.4929C91.4151 15.8243 91.3275 16.2244 91.3228 16.6932ZM118.791 15.7273C118.791 17.3134 118.49 18.6629 117.889 19.7756C117.292 20.8883 116.478 21.7382 115.446 22.3253C114.418 22.9077 113.263 23.1989 111.98 23.1989C110.687 23.1989 109.527 22.9053 108.5 22.3182C107.472 21.7311 106.66 20.8812 106.064 19.7685C105.467 18.6558 105.169 17.3087 105.169 15.7273C105.169 14.1411 105.467 12.7917 106.064 11.679C106.66 10.5663 107.472 9.71875 108.5 9.13636C109.527 8.54924 110.687 8.25568 111.98 8.25568C113.263 8.25568 114.418 8.54924 115.446 9.13636C116.478 9.71875 117.292 10.5663 117.889 11.679C118.49 12.7917 118.791 14.1411 118.791 15.7273ZM115.673 15.7273C115.673 14.6998 115.519 13.8333 115.211 13.1278C114.908 12.4223 114.48 11.8873 113.926 11.5227C113.372 11.1581 112.723 10.9759 111.98 10.9759C111.236 10.9759 110.588 11.1581 110.034 11.5227C109.48 11.8873 109.049 12.4223 108.741 13.1278C108.438 13.8333 108.287 14.6998 108.287 15.7273C108.287 16.7547 108.438 17.6212 108.741 18.3267C109.049 19.0322 109.48 19.5672 110.034 19.9318C110.588 20.2964 111.236 20.4787 111.98 20.4787C112.723 20.4787 113.372 20.2964 113.926 19.9318C114.48 19.5672 114.908 19.0322 115.211 18.3267C115.519 17.6212 115.673 16.7547 115.673 15.7273ZM124.123 23.206C123.427 23.206 122.807 23.0852 122.262 22.8438C121.718 22.5975 121.287 22.2353 120.969 21.7571C120.657 21.2741 120.501 20.6728 120.501 19.9531C120.501 19.3471 120.612 18.8381 120.835 18.4261C121.057 18.0142 121.36 17.6828 121.744 17.4318C122.127 17.1809 122.563 16.9915 123.05 16.8636C123.543 16.7358 124.059 16.6458 124.599 16.5938C125.233 16.5275 125.745 16.4659 126.133 16.4091C126.521 16.3475 126.803 16.2576 126.978 16.1392C127.153 16.0208 127.241 15.8456 127.241 15.6136V15.571C127.241 15.1212 127.099 14.7732 126.815 14.527C126.535 14.2808 126.138 14.1577 125.621 14.1577C125.077 14.1577 124.644 14.2784 124.322 14.5199C124 14.7566 123.787 15.0549 123.683 15.4148L120.884 15.1875C121.026 14.5246 121.306 13.9517 121.722 13.4688C122.139 12.9811 122.676 12.607 123.335 12.3466C123.997 12.0814 124.764 11.9489 125.636 11.9489C126.242 11.9489 126.822 12.0199 127.376 12.1619C127.934 12.304 128.429 12.5241 128.86 12.8224C129.296 13.1207 129.639 13.5043 129.89 13.973C130.141 14.437 130.266 14.9934 130.266 15.642V23H127.397V21.4872H127.312C127.137 21.8281 126.902 22.1288 126.609 22.3892C126.315 22.6449 125.962 22.8461 125.55 22.9929C125.138 23.1349 124.663 23.206 124.123 23.206ZM124.989 21.1179C125.434 21.1179 125.827 21.0303 126.168 20.8551C126.509 20.6752 126.777 20.4337 126.971 20.1307C127.165 19.8277 127.262 19.4844 127.262 19.1009V17.9432C127.167 18.0047 127.037 18.0616 126.871 18.1136C126.71 18.161 126.528 18.206 126.325 18.2486C126.121 18.2865 125.917 18.322 125.714 18.3551C125.51 18.3835 125.326 18.4096 125.16 18.4332C124.805 18.4853 124.495 18.5682 124.229 18.6818C123.964 18.7955 123.758 18.9493 123.612 19.1435C123.465 19.3329 123.391 19.5696 123.391 19.8537C123.391 20.2656 123.54 20.5805 123.839 20.7983C124.142 21.0114 124.525 21.1179 124.989 21.1179ZM141.69 15.2017L138.92 15.3722C138.873 15.1354 138.771 14.9223 138.615 14.733C138.459 14.5388 138.253 14.3849 137.997 14.2713C137.746 14.1529 137.446 14.0938 137.095 14.0938C136.626 14.0938 136.231 14.1932 135.909 14.392C135.587 14.5862 135.426 14.8466 135.426 15.1733C135.426 15.4337 135.53 15.6539 135.739 15.8338C135.947 16.0137 136.304 16.1581 136.811 16.267L138.786 16.6648C139.846 16.8826 140.637 17.233 141.158 17.7159C141.679 18.1989 141.939 18.8333 141.939 19.6193C141.939 20.3343 141.728 20.9616 141.307 21.5014C140.89 22.0412 140.317 22.4626 139.588 22.7656C138.864 23.0639 138.028 23.2131 137.081 23.2131C135.637 23.2131 134.486 22.9124 133.629 22.3111C132.777 21.705 132.277 20.8812 132.131 19.8395L135.107 19.6832C135.196 20.1236 135.414 20.4598 135.76 20.6918C136.106 20.919 136.548 21.0327 137.088 21.0327C137.618 21.0327 138.045 20.9309 138.366 20.7273C138.693 20.5189 138.859 20.2514 138.864 19.9247C138.859 19.6501 138.743 19.4252 138.516 19.25C138.288 19.0701 137.938 18.9328 137.464 18.8381L135.575 18.4616C134.51 18.2486 133.717 17.8793 133.196 17.3537C132.68 16.8281 132.422 16.1581 132.422 15.3438C132.422 14.643 132.611 14.0393 132.99 13.5327C133.374 13.026 133.911 12.6354 134.602 12.3608C135.298 12.0862 136.113 11.9489 137.045 11.9489C138.423 11.9489 139.508 12.2401 140.298 12.8224C141.094 13.4048 141.558 14.1979 141.69 15.2017ZM143.844 23V12.0909H146.87V23H143.844ZM145.364 10.6847C144.914 10.6847 144.528 10.5355 144.206 10.2372C143.889 9.93419 143.73 9.57197 143.73 9.15057C143.73 8.7339 143.889 8.37642 144.206 8.07812C144.528 7.77509 144.914 7.62358 145.364 7.62358C145.814 7.62358 146.197 7.77509 146.515 8.07812C146.837 8.37642 146.998 8.7339 146.998 9.15057C146.998 9.57197 146.837 9.93419 146.515 10.2372C146.197 10.5355 145.814 10.6847 145.364 10.6847ZM158.37 15.2017L155.6 15.3722C155.553 15.1354 155.451 14.9223 155.295 14.733C155.138 14.5388 154.933 14.3849 154.677 14.2713C154.426 14.1529 154.125 14.0938 153.775 14.0938C153.306 14.0938 152.911 14.1932 152.589 14.392C152.267 14.5862 152.106 14.8466 152.106 15.1733C152.106 15.4337 152.21 15.6539 152.418 15.8338C152.627 16.0137 152.984 16.1581 153.491 16.267L155.465 16.6648C156.526 16.8826 157.317 17.233 157.837 17.7159C158.358 18.1989 158.619 18.8333 158.619 19.6193C158.619 20.3343 158.408 20.9616 157.987 21.5014C157.57 22.0412 156.997 22.4626 156.268 22.7656C155.543 23.0639 154.708 23.2131 153.761 23.2131C152.317 23.2131 151.166 22.9124 150.309 22.3111C149.457 21.705 148.957 20.8812 148.81 19.8395L151.786 19.6832C151.876 20.1236 152.094 20.4598 152.44 20.6918C152.785 20.919 153.228 21.0327 153.768 21.0327C154.298 21.0327 154.724 20.9309 155.046 20.7273C155.373 20.5189 155.539 20.2514 155.543 19.9247C155.539 19.6501 155.423 19.4252 155.195 19.25C154.968 19.0701 154.618 18.9328 154.144 18.8381L152.255 18.4616C151.19 18.2486 150.397 17.8793 149.876 17.3537C149.36 16.8281 149.102 16.1581 149.102 15.3438C149.102 14.643 149.291 14.0393 149.67 13.5327C150.053 13.026 150.591 12.6354 151.282 12.3608C151.978 12.0862 152.792 11.9489 153.725 11.9489C155.103 11.9489 156.187 12.2401 156.978 12.8224C157.773 13.4048 158.237 14.1979 158.37 15.2017Z" fill="#000929"/>
</svg>
