<svg width="32" height="32" viewBox="0 0 32 32" fill="none" xmlns="http://www.w3.org/2000/svg">
<rect width="32" height="32" rx="4" fill="#7065F0"/>
<rect x="4" y="4" width="24" height="24" rx="2" fill="#7065F0"/>
<path d="M7 14.5653C7 13.9909 7 13.7038 7.07403 13.4393C7.1396 13.205 7.24737 12.9847 7.39203 12.7891C7.55534 12.5683 7.78202 12.392 8.23539 12.0394L15.0177 6.76424C15.369 6.49099 15.5447 6.35436 15.7387 6.30184C15.9098 6.2555 16.0902 6.2555 16.2613 6.30184C16.4553 6.35436 16.631 6.49099 16.9823 6.76424L23.7646 12.0394C24.218 12.392 24.4447 12.5683 24.608 12.7891C24.7526 12.9847 24.8604 13.205 24.926 13.4393C25 13.7038 25 13.9909 25 14.5653V21.8002C25 22.9203 25 23.4804 24.782 23.9082C24.5903 24.2845 24.2843 24.5905 23.908 24.7822C23.4802 25.0002 22.9201 25.0002 21.8 25.0002H10.2C9.07989 25.0002 8.51984 25.0002 8.09202 24.7822C7.71569 24.5905 7.40973 24.2845 7.21799 23.9082C7 23.4804 7 22.9203 7 21.8002V14.5653Z" fill="#7065F0"/>
<path d="M12.126 18.0002C12.5701 19.7255 14.1362 21.0002 16 21.0002C17.8638 21.0002 19.4299 19.7255 19.874 18.0002M15.0177 6.76424L8.23539 12.0394C7.78202 12.392 7.55534 12.5683 7.39203 12.7891C7.24737 12.9847 7.1396 13.205 7.07403 13.4393C7 13.7038 7 13.9909 7 14.5653V21.8002C7 22.9203 7 23.4804 7.21799 23.9082C7.40973 24.2845 7.71569 24.5905 8.09202 24.7822C8.51984 25.0002 9.07989 25.0002 10.2 25.0002H21.8C22.9201 25.0002 23.4802 25.0002 23.908 24.7822C24.2843 24.5905 24.5903 24.2845 24.782 23.9082C25 23.4804 25 22.9203 25 21.8002V14.5653C25 13.9909 25 13.7038 24.926 13.4393C24.8604 13.205 24.7526 12.9847 24.608 12.7891C24.4447 12.5683 24.218 12.392 23.7646 12.0394L16.9823 6.76424C16.631 6.49099 16.4553 6.35436 16.2613 6.30184C16.0902 6.2555 15.9098 6.2555 15.7387 6.30184C15.5447 6.35436 15.369 6.49099 15.0177 6.76424Z" stroke="white" stroke-width="2" stroke-linecap="round" stroke-linejoin="round"/>
</svg>
